<svg id="View-Off--Streamline-Carbon" xmlns="http://www.w3.org/2000/svg" viewBox="0 0 24 24" height="24" width="24">
  <desc>
    View Off Streamline Icon: https://streamlinehq.com
  </desc>
  <defs></defs>
  <title>view--off</title>
  <path d="m3.93 16.8825 1.0725 -1.065A10.545 10.545 0 0 1 2.3024999999999998 12C3.8249999999999997 8.1975 8.024999999999999 5.25 12 5.25a9.285 9.285 0 0 1 3 0.54l1.1625 -1.17A11.040000000000001 11.040000000000001 0 0 0 12 3.75 12.517500000000002 12.517500000000002 0 0 0 0.795 11.745000000000001a0.75 0.75 0 0 0 0 0.51 12 12 0 0 0 3.135 4.6274999999999995Z" fill="#afb2bf" stroke-width="0.75"></path>
  <path d="M9 11.7975a3 3 0 0 1 2.7750000000000004 -2.7750000000000004l1.3575 -1.365a4.5 4.5 0 0 0 -5.4975000000000005 5.4975000000000005Z" fill="#afb2bf" stroke-width="0.75"></path>
  <path d="M23.205000000000002 11.745000000000001a12.299999999999999 12.299999999999999 0 0 0 -4.305 -5.58L22.5 2.5575 21.4425 1.5 1.5 21.4425 2.5575 22.5l3.8249999999999997 -3.8249999999999997A11.4675 11.4675 0 0 0 12 20.25a12.517500000000002 12.517500000000002 0 0 0 11.205 -7.995 0.75 0.75 0 0 0 0 -0.51ZM15 12a3 3 0 0 1 -4.5 2.58L14.580000000000002 10.5a3 3 0 0 1 0.42000000000000004 1.5Zm-3 6.75a9.787500000000001 9.787500000000001 0 0 1 -4.5 -1.185l1.905 -1.905a4.5 4.5 0 0 0 6.262499999999999 -6.262499999999999l2.1525 -2.1525A10.905 10.905 0 0 1 21.697499999999998 12C20.174999999999997 15.8025 15.975000000000001 18.75 12 18.75Z" fill="#afb2bf" stroke-width="0.75"></path>
  <path id="_Transparent_Rectangle_" d="M0 0h24v24H0Z" fill="none" stroke-width="0.75"></path>
</svg>