<svg width="408" height="120" viewBox="0 0 408 120" fill="none" xmlns="http://www.w3.org/2000/svg">
<path fill-rule="evenodd" clip-rule="evenodd" d="M0 0H90.341C106.022 1.48799 117.863 14.9398 120.455 29.1263C123.642 46.5681 112.601 65.1255 93.8159 71.0677L120.455 120H93.8159L68.335 72.2313H27.7973C26.241 72.2313 25.1169 72.0523 24.548 73.1241C24.3364 73.3366 24.3225 73.9958 24.3225 74.3995C24.3225 74.8031 24.3225 75.0372 24.3225 75.7263V120H0V65.242C0.423242 60.1573 2.12897 55.8983 5.50215 52.7174C8.87533 49.5364 13.7554 47.7662 18.5317 47.7662H85.1737C91.8435 47.1905 95.8817 41.506 95.5977 35.3759C95.4326 32.5346 94.311 29.8341 92.4169 27.7175C90.5228 25.6008 88.246 23.8078 85.1737 23.7271H0V0Z" fill="#188B30"/>
<path fill-rule="evenodd" clip-rule="evenodd" d="M289 120L325.971 12.9656C328.179 9.02758 331.373 5.75382 335.229 3.47665C339.084 1.19948 343.463 0 347.922 0C352.381 0 356.761 1.19948 360.616 3.47665C364.471 5.75382 367.665 9.02758 369.874 12.9656L408 120H382.584L351.638 34.1372C351.427 33.617 351.307 33.2088 351.135 32.7768C350.964 32.3448 350.709 31.9518 350.387 31.6204C350.064 31.2891 349.681 31.026 349.258 30.8465C348.834 30.667 348.381 30.5745 347.922 30.5745C347.464 30.5745 347.01 30.667 346.587 30.8465C346.164 31.026 345.78 31.2891 345.458 31.6204C345.135 31.9518 344.881 32.3448 344.709 32.7768C344.537 33.2088 344.41 33.6773 344.25 34.1372C334.237 62.7579 324.43 91.3788 314.418 120H289.002H289Z" fill="#188B30"/>
<path fill-rule="evenodd" clip-rule="evenodd" d="M145.025 0H246.284C255.883 1.59853 263.074 10.0567 264.674 18.6407C266.994 31.0918 256.289 40.2803 252.522 43.2622C250.594 44.7867 248.112 46.4508 246.284 47.7687L180.769 88.5396C179.86 89.1731 179.23 89.6025 178.39 90.4528C177.55 91.5156 177.34 92.1533 177.34 93.2162C177.483 94.0896 177.551 94.7042 178.39 95.5545C179.008 96.181 179.65 96.6173 180.769 96.6989H264.674V120H165.827C154.623 118.257 146.259 109.4 145.138 99.0291C144.217 90.5131 147.939 81.95 155.482 76.8934L231.342 30.2912C232.363 29.7598 232.641 28.0028 232.573 26.7838C232.511 25.6739 231.959 24.9569 231.406 24.4078C230.957 23.9615 230.324 23.7593 229.726 23.5575C229.129 23.3557 228.582 23.3019 227.894 23.3019H145.025L145.025 0Z" fill="#188B30"/>
</svg>
