<svg id="View--Streamline-Carbon" xmlns="http://www.w3.org/2000/svg" viewBox="0 0 24 24" height="24" width="24">
  <desc>
    View Streamline Icon: https://streamlinehq.com
  </desc>
  <defs></defs>
  <title>view</title>
  <path d="M23.205000000000002 11.745000000000001A12.517500000000002 12.517500000000002 0 0 0 12 3.75 12.517500000000002 12.517500000000002 0 0 0 0.795 11.745000000000001a0.75 0.75 0 0 0 0 0.51A12.517500000000002 12.517500000000002 0 0 0 12 20.25a12.517500000000002 12.517500000000002 0 0 0 11.205 -7.995 0.75 0.75 0 0 0 0 -0.51ZM12 18.75c-3.9749999999999996 0 -8.175 -2.9475000000000002 -9.6975 -6.75C3.8249999999999997 8.1975 8.024999999999999 5.25 12 5.25s8.175 2.9475000000000002 9.6975 6.75C20.174999999999997 15.8025 15.975000000000001 18.75 12 18.75Z" fill="#afb2bf" stroke-width="0.75"></path>
  <path d="M12 7.5a4.5 4.5 0 1 0 4.5 4.5 4.5 4.5 0 0 0 -4.5 -4.5Zm0 7.5a3 3 0 1 1 3 -3 3 3 0 0 1 -3 3Z" fill="#afb2bf" stroke-width="0.75"></path>
  <path id="_Transparent_Rectangle_" d="M0 0h24v24H0Z" fill="none" stroke-width="0.75"></path>
</svg>