<svg id="Password--Streamline-Carbon" xmlns="http://www.w3.org/2000/svg" viewBox="0 0 24 24" height="24" width="24">
  <desc>
    Password Streamline Icon: https://streamlinehq.com
  </desc>
  <defs></defs>
  <path d="M15.75 1.5a6.748275 6.748275 0 0 0 -6.458925000000001 8.70885L1.5 18v4.5h4.5l7.791074999999999 -7.79115A6.75 6.75 0 1 0 15.75 1.5Zm0 12a5.259375 5.259375 0 0 1 -1.5241500000000001 -0.22665000000000002L13.365750000000002 13.012500000000001l-0.6354 0.6354 -2.3858249999999996 2.3859L9.310575 15 8.25 16.060575l1.034025 1.03395 -1.189425 1.1895L7.060575 17.25 6 18.310575l1.034025 1.03395L5.3787 21H3v-2.3787000000000003l7.351725 -7.351725 0.6354 -0.6355500000000001 -0.260475 -0.860025A5.25 5.25 0 1 1 15.75 13.5Z" fill="#afb2bf" stroke-width="0.75"></path>
  <path d="M15 7.5a1.5 1.5 0 1 0 3 0 1.5 1.5 0 1 0 -3 0" fill="#afb2bf" stroke-width="0.75"></path>
  <path id="_Transparent_Rectangle_" d="M0 0h24v24H0Z" fill="none" stroke-width="0.75"></path>
</svg>